<?xml version="1.0" encoding="utf-8"?>
<!-- Generator: Adobe Illustrator 15.1.0, SVG Export Plug-In . SVG Version: 6.00 Build 0)  -->
<!DOCTYPE svg PUBLIC "-//W3C//DTD SVG 1.1//EN" "http://www.w3.org/Graphics/SVG/1.1/DTD/svg11.dtd">
<svg version="1.1" id="svg2" xmlns:svg="http://www.w3.org/2000/svg"
	 xmlns="http://www.w3.org/2000/svg" xmlns:xlink="http://www.w3.org/1999/xlink" x="0px" y="0px" width="20px" height="15px"
	 viewBox="102.5 67.5 20 15" enable-background="new 102.5 67.5 20 15" xml:space="preserve">
<rect id="rect1310" x="102.5" y="67.5" fill="#CCCCCC" width="20" height="15"/>
<path id="flowRoot1875" fill="#FFFFFF" d="M112.732,76.929h-1.265c-0.009-0.03-0.05-0.143-0.123-0.338
	c-0.073-0.193-0.108-0.363-0.108-0.509c0-0.277,0.039-0.545,0.115-0.801c0.077-0.256,0.191-0.495,0.341-0.718
	c0.15-0.223,0.446-0.579,0.89-1.069c0.443-0.489,0.666-0.894,0.666-1.211c0-0.618-0.404-0.926-1.211-0.926
	c-0.393,0-0.803,0.196-1.231,0.588l-0.683-1.277c0.57-0.446,1.317-0.668,2.244-0.668c0.715,0,1.313,0.199,1.79,0.596
	c0.479,0.397,0.719,0.924,0.719,1.582c0,0.45-0.087,0.83-0.262,1.141s-0.48,0.677-0.92,1.096c-0.438,0.419-0.725,0.767-0.857,1.045
	c-0.132,0.278-0.198,0.582-0.198,0.913C112.639,76.443,112.669,76.629,112.732,76.929L112.732,76.929z M112.169,77.829
	c0.3,0,0.555,0.106,0.765,0.318c0.21,0.211,0.314,0.467,0.314,0.768c0,0.3-0.104,0.555-0.314,0.768
	c-0.21,0.212-0.465,0.317-0.765,0.317s-0.556-0.105-0.768-0.317c-0.212-0.213-0.318-0.468-0.318-0.768
	c0-0.301,0.106-0.557,0.318-0.768C111.613,77.936,111.869,77.829,112.169,77.829L112.169,77.829z"/>
</svg>
