<?xml version="1.0" encoding="utf-8"?>
<!-- Generator: Adobe Illustrator 15.1.0, SVG Export Plug-In . SVG Version: 6.00 Build 0)  -->
<!DOCTYPE svg PUBLIC "-//W3C//DTD SVG 1.1//EN" "http://www.w3.org/Graphics/SVG/1.1/DTD/svg11.dtd">
<svg version="1.1" id="Layer_1" xmlns="http://www.w3.org/2000/svg" xmlns:xlink="http://www.w3.org/1999/xlink" x="0px" y="0px"
	 width="80px" height="80px" viewBox="135 0 80 80" enable-background="new 135 0 80 80" xml:space="preserve">
<path d="M150.823,8.101h8.861l1.266,6.089c1.747,0.658,3.354,1.607,4.747,2.785l5.456-1.785l4.354,7.519l-4.291,3.835
	c0.165,0.924,0.24,1.861,0.24,2.823s-0.088,1.911-0.24,2.823l4.291,3.835l-4.354,7.519l-5.456-1.797
	c-1.405,1.177-3,2.126-4.747,2.784l-1.266,6.102h-8.861l-1.266-6.089c-1.747-0.658-3.354-1.607-4.747-2.784l-5.456,1.784L135,36.025
	l4.291-3.835c-0.152-0.912-0.24-1.861-0.24-2.823s0.088-1.912,0.24-2.823L135,22.709l4.354-7.519l5.456,1.797
	c1.405-1.177,3-2.126,4.747-2.785L150.823,8.101z M161.329,29.367c0-3.354-2.722-6.076-6.076-6.076
	c-3.354,0-6.076,2.722-6.076,6.076s2.722,6.076,6.076,6.076C158.607,35.443,161.329,32.722,161.329,29.367z M215,56l-6.051,1.24
	c-0.62,1.696-1.519,3.266-2.646,4.646l1.898,5.671l-7.671,4.342l-3.911-4.304c-0.937,0.165-1.898,0.253-2.873,0.253
	s-1.949-0.088-2.874-0.253l-3.911,4.304l-7.671-4.354l1.898-5.671c-1.126-1.379-2.024-2.949-2.646-4.646L172.468,56v-8.709
	l6.05-1.24c0.621-1.696,1.52-3.266,2.646-4.646l-1.899-5.671l7.671-4.342l3.911,4.304c0.938-0.165,1.899-0.253,2.874-0.253
	s1.949,0.089,2.873,0.253l3.911-4.304l7.671,4.354l-1.898,5.671c1.127,1.38,2.025,2.949,2.646,4.646l6.051,1.24V56H215z
	 M193.734,57.722c3.354,0,6.076-2.722,6.076-6.076s-2.722-6.076-6.076-6.076s-6.076,2.722-6.076,6.076S190.38,57.722,193.734,57.722
	z"/>
</svg>
