<?xml version="1.0" encoding="utf-8"?>
<!-- Generator: Adobe Illustrator 15.1.0, SVG Export Plug-In . SVG Version: 6.00 Build 0)  -->
<!DOCTYPE svg PUBLIC "-//W3C//DTD SVG 1.1//EN" "http://www.w3.org/Graphics/SVG/1.1/DTD/svg11.dtd">
<svg version="1.1" id="Layer_1" xmlns="http://www.w3.org/2000/svg" xmlns:xlink="http://www.w3.org/1999/xlink" x="0px" y="0px"
	 width="80px" height="80px" viewBox="135 0 80 80" enable-background="new 135 0 80 80" xml:space="preserve">
<path d="M153,28c-5.525,0-10-4.475-10-10s4.475-10,10-10s10,4.475,10,10S158.525,28,153,28z M199,28c-5.525,0-10-4.475-10-10
	s4.475-10,10-10s10,4.475,10,10S204.525,28,199,28z M141,32h18.5c-0.325,1.275-0.5,2.625-0.5,4c0,4.775,2.1,9.063,5.413,12H135
	L141,32z M215,48h-29.412c3.324-2.938,5.412-7.225,5.412-12c0-1.375-0.175-2.725-0.5-4H209L215,48z M187,36c0,6.625-5.375,12-12,12
	s-12-5.375-12-12s5.375-12,12-12S187,29.375,187,36z M193,52l6,20h-48l6-20H193z"/>
</svg>
