<?xml version="1.0" encoding="utf-8"?>
<!-- Generator: Adobe Illustrator 15.1.0, SVG Export Plug-In . SVG Version: 6.00 Build 0)  -->
<!DOCTYPE svg PUBLIC "-//W3C//DTD SVG 1.1//EN" "http://www.w3.org/Graphics/SVG/1.1/DTD/svg11.dtd">
<svg version="1.1" id="Layer_1" xmlns="http://www.w3.org/2000/svg" xmlns:xlink="http://www.w3.org/1999/xlink" x="0px" y="0px"
	 width="80px" height="80px" viewBox="135 0 80 80" enable-background="new 135 0 80 80" xml:space="preserve">
<path d="M190,50c13.813,0,25-11.188,25-25c0-3.672-0.797-7.156-2.203-10.297L197.5,30H185V17.5l15.297-15.297
	C197.156,0.797,193.672,0,190,0c-13.813,0-25,11.188-25,25c0,2.984,0.531,5.859,1.484,8.516L135,65l15,15l31.484-31.484
	C184.141,49.484,187.016,50,190,50z M156.547,63.75l-5.297,5.297l-5.297-5.297l5.297-5.297L156.547,63.75z"/>
</svg>
