<?xml version="1.0" encoding="UTF-8"?>
<!DOCTYPE svg PUBLIC "-//W3C//DTD SVG 1.1//EN" "http://www.w3.org/Graphics/SVG/1.1/DTD/svg11.dtd">
<!-- Creator: CorelDRAW -->
<svg xmlns="http://www.w3.org/2000/svg" xml:space="preserve" width="406px" height="443px" version="1.1" style="shape-rendering:geometricPrecision; text-rendering:geometricPrecision; image-rendering:optimizeQuality; fill-rule:evenodd; clip-rule:evenodd"
viewBox="0 0 14421000 15726000"
 xmlns:xlink="http://www.w3.org/1999/xlink"
 xmlns:xodm="http://www.corel.com/coreldraw/odm/2003">
 <defs>
  <style type="text/css">
   <![CDATA[
    .str0 {stroke:#FDA11B;stroke-width:105000;stroke-miterlimit:22.9256}
    .str1 {stroke:#1194C9;stroke-width:84000;stroke-miterlimit:22.9256}
    .fil1 {fill:#0B95C5}
    .fil0 {fill:#FFAD1A}
   ]]>
  </style>
 </defs>
 <g id="Слой_x0020_1">
  <metadata id="CorelCorpID_0Corel-Layer"/>
  <path class="fil0 str0" d="M7961000 1526000c3539000,0 6407000,2868000 6407000,6407000 0,3539000 -2868000,6407000 -6407000,6407000 -3539000,0 -6407000,-2868000 -6407000,-6407000 0,-3539000 2868000,-6407000 6407000,-6407000zm-1000 2964000c1901000,0 3442000,1541000 3442000,3442000 0,1900000 -1541000,3441000 -3442000,3441000 -1901000,0 -3442000,-1541000 -3442000,-3441000 0,-1901000 1541000,-3442000 3442000,-3442000z"/>
  <path class="fil1 str1" d="M7863000 42000c19000,0 37000,1000 56000,1000l0 2839000c-19000,0 -37000,-1000 -56000,-1000 -2751000,0 -4982000,2231000 -4982000,4982000 0,2752000 2231000,4982000 4982000,4982000 19000,0 37000,-1000 56000,-1000l0 2840000c-19000,0 -37000,0 -56000,0 -4319000,0 -7821000,-3501000 -7821000,-7821000 0,-4319000 3502000,-7821000 7821000,-7821000z"/>
 </g>
</svg>
